<svg width="128" height="128" viewBox="0 0 128 128" fill="none" xmlns="http://www.w3.org/2000/svg">
<path fill-rule="evenodd" clip-rule="evenodd" d="M20 96.9V88.8C20 87.7 20.7 86.9 21.8 86.9H22.1C23.2 86.9 23.9 87.8 23.9 88.8V105.8C23.9 109.9 21.9 113.2 18.3 115.3C16.6 116.3 14.8 116.8 12.9 116.8H12.1C8.00001 116.8 4.70001 114.8 2.60001 111.2C1.60001 109.5 1.10001 107.7 1.10001 105.8V105C1.10001 100.9 3.10001 97.6 6.70001 95.5C8.40001 94.5 10.2 94 12.1 94H12.9C15.6 94.1 18 95.1 20 96.9ZM4.90001 105.4C4.90001 108.4 6.40001 110.6 9.00001 112.1C10.1 112.7 11.2 113 12.4 113C15.3 113 17.5 111.6 19 109.1C19.7 107.9 20 106.7 20 105.3C20 102.7 18.8 100.7 16.7 99.2C15.4 98.3 14 97.8 12.5 97.8C9.30001 97.8 7.00001 99.4 5.60001 102.3C5.10001 103.3 4.90001 104.4 4.90001 105.4ZM37.1 94.1H37.6C42 94.1 45.4 96.2 47.5 100.1C48.4 101.6 48.8 103.3 48.8 105.1V105.9C48.8 110 46.8 113.3 43.2 115.4C41.5 116.4 39.7 116.9 37.8 116.9H37C32.9 116.9 29.6 114.9 27.5 111.3C26.5 109.6 26 107.8 26 105.9V105.1C26 101 28.1 97.7 31.6 95.6C33.3 94.5 35.2 94.1 37.1 94.1ZM29.9 105.4C29.9 108.3 31.3 110.4 33.8 111.9C35 112.6 36.2 112.9 37.6 112.9C40.5 112.9 42.6 111.4 44.1 109C44.8 107.8 45.1 106.6 45.1 105.2C45.1 102.5 43.8 100.4 41.6 98.9C40.4 98.1 39 97.7 37.6 97.7C34.4 97.7 32.1 99.3 30.7 102.2C30.1 103.3 29.9 104.4 29.9 105.4ZM64.7 98.2C64.1 97.9 63 97.8 62.4 97.8C59.2 97.7 56.9 99.5 55.5 102.3C55 103.3 54.8 104.3 54.8 105.4C54.8 108.7 56.5 111 59.4 112.4C60.5 112.9 61.8 113 63 113C64 113 65.5 112.4 66.4 111.9L66.6 111.8H67.4C68.3 112 68.9 112.5 68.9 113.5V113.9C68.9 116.2 64.6 116.8 63 116.9C57.3 117.3 53 114.2 51.4 108.7C51.1 107.8 51 106.8 51 105.8V105C51 100.9 53.1 97.6 56.6 95.5C58.3 94.5 60.1 94 62 94H62.8C64.8 94 66.7 94.6 68.4 95.7L68.5 95.8L68.6 95.9C68.8 96.2 68.9 96.5 68.9 96.9V97.3C68.9 98.3 68.2 98.8 67.3 99H67C66.5 99 65.2 98.4 64.7 98.2ZM77.1 100.8C78.6 99.3 80.1 97.8 81.6 96.4C82 96 83.6 94.3 84.2 94.3H85C85.9 94.5 86.5 95 86.5 96V96.4C86.5 97 85.8 97.8 85.3 98.2L82.6 100.9L78 105.6C80 107.6 82 109.6 83.9 111.6L85.5 113.3C85.7 113.5 86 113.7 86.1 114C86.3 114.3 86.4 114.6 86.4 114.9V115.4C86.2 116.3 85.6 117 84.7 117H84.4C83.8 117 83.1 116.3 82.6 115.9C81.7 115.1 80.8 114.2 80 113.3L77.1 110.4V115C77.1 116.1 76.4 116.9 75.3 116.9H75C73.9 116.9 73.2 116 73.2 115V88.9C73.2 87.8 73.9 87 75 87H75.3C76.4 87 77.1 87.8 77.1 88.9V100.8ZM124.7 94.2H125.1C126.2 94.2 127 95 127 96.1C127 97.7 125.5 98.1 124.2 98.1C122.5 98.1 120.8 99.1 119.7 100.3C118.2 101.8 117.6 103.6 117.6 105.7V114.9C117.6 116 116.9 116.8 115.8 116.8H115.5C114.4 116.8 113.7 115.9 113.7 114.9V105.1C113.7 101.3 115.5 98.3 118.6 96.1C120.4 94.9 122.5 94.2 124.7 94.2ZM97.6 112.5C99 113 100.6 112.9 102 112.7C102.7 112.4 104.6 111.6 105.3 111.7H105.5C105.9 111.9 106.3 112.2 106.5 112.6C107 113.6 106.8 114.6 105.8 115.2L105.5 115.4C101.9 117.5 98 117.2 94.4 115.2C92.7 114.3 91.4 112.9 90.4 111.2L90.2 110.8C87.9 106.8 88.2 102.5 90.8 98.7C91.7 97.4 92.9 96.4 94.3 95.6L94.8 95.3C98.2 93.3 101.9 93.5 105.4 95.2C107.3 96.1 108.8 97.5 109.9 99.3L110.1 99.6C110.9 100.9 109.9 102.1 108.9 102.9C107.7 103.8 106.5 104.9 105.4 105.9C102.7 108.1 100.1 110.3 97.6 112.5ZM94.3 110.2L102.8 102.9C103.8 102.1 104.8 101.2 105.8 100.3C105 99.3 103.7 98.6 102.7 98.2C100.5 97.4 98.3 97.6 96.3 98.8C93.7 100.3 92.5 102.8 92.6 105.8C92.6 107 93 108.1 93.6 109.2C93.8 109.6 94 109.9 94.3 110.2Z" fill="#3A4D54"/>
<path fill-rule="evenodd" clip-rule="evenodd" d="M73.7 33.7H85V45.2H90.7C93.3 45.2 96 44.7 98.5 43.9C99.7 43.5 101.1 42.9 102.3 42.2C100.7 40.1 99.9 37.5 99.7 34.9C99.4 31.4 100.1 26.8 102.5 24.1L103.7 22.7L105.1 23.8C108.7 26.7 111.6 30.6 112.2 35.2C116.5 33.9 121.5 34.2 125.3 36.4L126.8 37.3L126 38.9C122.8 45.1 116.1 47.1 109.6 46.7C99.8 71 78.6 82.5 52.8 82.5C39.5 82.5 27.3 77.5 20.3 65.7L20.2 65.5L19.2 63.4C16.8 58.2 16.1 52.5 16.6 46.8L16.8 45.1H26.4V33.7H37.7V22.4H60.2V11.1H73.7V33.7Z" fill="#3A4D54"/>
<path d="M110.2 37.9C111 32 106.6 27.4 103.8 25.2C100.7 28.8 100.2 38.4 105.1 42.4C102.3 44.8 96.6 47.1 90.6 47.1H18.4C17.8 53.3 18.9 59 21.4 63.9L22.2 65.4C22.7 66.3 23.3 67.1 23.9 68C26.9 68.2 29.6 68.3 32.1 68.2C37 68.1 41 67.5 44.1 66.5C44.6 66.3 45 66.6 45.2 67C45.4 67.5 45.1 67.9 44.7 68.1C44.3 68.2 43.9 68.4 43.4 68.5C41 69.2 38.4 69.6 35.1 69.8H34.5C33.2 69.9 31.8 69.9 30.3 69.9C28.7 69.9 27.2 69.9 25.4 69.8C31.4 76.6 40.8 80.6 52.6 80.6C77.6 80.6 98.8 69.5 108.1 44.7C114.8 45.4 121.2 43.7 124.1 38C119.6 35.4 113.6 36.2 110.2 37.9Z" fill="#00AADA"/>
<path d="M110.2 37.9C111 32 106.6 27.4 103.8 25.2C100.7 28.8 100.2 38.4 105.1 42.4C102.3 44.8 96.6 47.1 90.6 47.1H22.6C22.3 56.6 25.8 63.8 32.1 68.1C37 68 41 67.4 44.1 66.4C44.6 66.2 45 66.5 45.2 66.9C45.4 67.4 45.1 67.8 44.7 68C44.3 68.1 43.9 68.3 43.4 68.4C41 69.1 38.2 69.6 34.9 69.8L34.8 69.7C43.3 74.1 55.6 74 69.8 68.6C85.6 62.5 100.4 50.9 110.7 37.7C110.5 37.8 110.4 37.9 110.2 37.9Z" fill="#28B8EB"/>
<path d="M18.5 54.6C18.9 57.9 19.9 61 21.4 63.9L22.2 65.4C22.7 66.3 23.3 67.1 23.9 68C26.9 68.2 29.6 68.3 32.1 68.2C37 68.1 41 67.5 44.1 66.5C44.6 66.3 45 66.6 45.2 67C45.4 67.5 45.1 67.9 44.7 68.1C44.3 68.2 43.9 68.4 43.4 68.5C41 69.2 38.2 69.7 34.9 69.9H34.5C33.2 70 31.8 70 30.4 70C28.8 70 27.2 70 25.5 69.9C31.5 76.7 41 80.7 52.8 80.7C74.2 80.7 92.8 72.6 103.6 54.7H18.5V54.6Z" fill="#028BB8"/>
<path d="M23.3 54.6C24.6 60.4 27.6 65 32.1 68.1C37 68 41 67.4 44.1 66.4C44.6 66.2 45 66.5 45.2 66.9C45.4 67.4 45.1 67.8 44.7 68C44.3 68.1 43.9 68.3 43.4 68.4C41 69.1 38.2 69.6 34.8 69.8C43.3 74.2 55.6 74.1 69.7 68.7C78.2 65.4 86.5 60.5 93.9 54.6H23.3Z" fill="#019BC6"/>
<path fill-rule="evenodd" clip-rule="evenodd" d="M28.2 35.5H38V45.3H28.2V35.5ZM29 36.4H29.8V44.5H29V36.4ZM30.5 36.4H31.3V44.5H30.5V36.4ZM32 36.4H32.8V44.5H32V36.4ZM33.4 36.4H34.2V44.5H33.4V36.4ZM34.9 36.4H35.7V44.5H34.9V36.4ZM36.4 36.4H37.2V44.5H36.4V36.4ZM39.5 24.3H49.3V34H39.5V24.3ZM40.3 25.1H41.1V33.2H40.3V25.1ZM41.8 25.1H42.6V33.2H41.8V25.1ZM43.2 25.1H44V33.2H43.2V25.1ZM44.7 25.1H45.5V33.2H44.7V25.1ZM46.2 25.1H47V33.2H46.2V25.1ZM47.7 25.1H48.5V33.2H47.7V25.1Z" fill="#00ACD3"/>
<path fill-rule="evenodd" clip-rule="evenodd" d="M39.5 35.5H49.3V45.3H39.5V35.5ZM40.3 36.4H41.1V44.5H40.3V36.4ZM41.8 36.4H42.6V44.5H41.8V36.4ZM43.2 36.4H44V44.5H43.2V36.4ZM44.7 36.4H45.5V44.5H44.7V36.4ZM46.2 36.4H47V44.5H46.2V36.4ZM47.7 36.4H48.5V44.5H47.7V36.4Z" fill="#23C2EE"/>
<path fill-rule="evenodd" clip-rule="evenodd" d="M50.8 35.5H60.6V45.3H50.8V35.5ZM51.6 36.4H52.4V44.5H51.6V36.4ZM53 36.4H53.8V44.5H53V36.4ZM54.5 36.4H55.3V44.5H54.5V36.4ZM56 36.4H56.8V44.5H56V36.4ZM57.5 36.4H58.3V44.5H57.5V36.4ZM58.9 36.4H59.7V44.5H58.9V36.4Z" fill="#00ACD3"/>
<path fill-rule="evenodd" clip-rule="evenodd" d="M50.8 24.3H60.6V34H50.8V24.3ZM51.6 25.1H52.4V33.2H51.6V25.1ZM53 25.1H53.8V33.2H53V25.1ZM54.5 25.1H55.3V33.2H54.5V25.1ZM56 25.1H56.8V33.2H56V25.1ZM57.5 25.1H58.3V33.2H57.5V25.1ZM58.9 25.1H59.7V33.2H58.9V25.1ZM62 35.5H71.8V45.3H62V35.5ZM62.9 36.4H63.7V44.5H62.9V36.4ZM64.3 36.4H65.1V44.5H64.3V36.4ZM65.8 36.4H66.6V44.5H65.8V36.4ZM67.3 36.4H68.1V44.5H67.3V36.4ZM68.7 36.4H69.5V44.5H68.7V36.4ZM70.2 36.4H71V44.5H70.2V36.4Z" fill="#23C2EE"/>
<path fill-rule="evenodd" clip-rule="evenodd" d="M62 24.3H71.8V34H62V24.3ZM62.9 25.1H63.7V33.2H62.9V25.1ZM64.3 25.1H65.1V33.2H64.3V25.1ZM65.8 25.1H66.6V33.2H65.8V25.1ZM67.3 25.1H68.1V33.2H67.3V25.1ZM68.7 25.1H69.5V33.2H68.7V25.1ZM70.2 25.1H71V33.2H70.2V25.1Z" fill="#00ACD3"/>
<path fill-rule="evenodd" clip-rule="evenodd" d="M62 13H71.8V22.8H62V13ZM62.9 13.8H63.7V22H62.9V13.8ZM64.3 13.8H65.1V22H64.3V13.8ZM65.8 13.8H66.6V22H65.8V13.8ZM67.3 13.8H68.1V22H67.3V13.8ZM68.7 13.8H69.5V22H68.7V13.8ZM70.2 13.8H71V22H70.2V13.8Z" fill="#23C2EE"/>
<path fill-rule="evenodd" clip-rule="evenodd" d="M73.3 35.5H83.1V45.3H73.3V35.5ZM74.1 36.4H74.9V44.5H74.1V36.4ZM75.6 36.4H76.4V44.5H75.6V36.4ZM77.1 36.4H77.9V44.5H77.1V36.4ZM78.5 36.4H79.3V44.5H78.5V36.4ZM80 36.4H80.8V44.5H80V36.4ZM81.5 36.4H82.3V44.5H81.5V36.4Z" fill="#00ACD3"/>
<path fill-rule="evenodd" clip-rule="evenodd" d="M48.6 61.2C50.1 61.2 51.3 62.4 51.3 63.9C51.3 65.4 50.1 66.6 48.6 66.6C47.1 66.6 45.9 65.4 45.9 63.9C46 62.4 47.2 61.2 48.6 61.2Z" fill="#D4EEF1"/>
<path fill-rule="evenodd" clip-rule="evenodd" d="M48.6 61.9C48.8 61.9 49.1 61.9 49.3 62C49.1 62.1 48.9 62.4 48.9 62.7C48.9 63.1 49.3 63.5 49.7 63.5C50 63.5 50.3 63.3 50.4 63.1C50.5 63.3 50.5 63.6 50.5 63.8C50.5 64.9 49.6 65.7 48.6 65.7C47.5 65.7 46.7 64.8 46.7 63.8C46.7 62.8 47.6 61.9 48.6 61.9ZM1 55.6H126.3C123.6 54.9 117.7 54 118.6 50.4C113.6 56.1 101.7 54.4 98.6 51.6C95.2 56.5 75.6 54.6 74.3 50.8C70.1 55.8 57 55.8 52.8 50.8C51.4 54.6 31.8 56.5 28.5 51.6C25.5 54.4 13.5 56.1 8.5 50.4C9.6 53.9 3.7 54.9 1 55.6Z" fill="#3A4D54"/>
<path d="M55.8 80.6C49.1 77.4 45.5 73.1 43.4 68.4C40.9 69.1 37.9 69.6 34.5 69.8C33.2 69.9 31.8 69.9 30.4 69.9C28.7 69.9 27 69.9 25.2 69.8C31.3 75.9 38.9 80.6 52.8 80.7C53.8 80.6 54.8 80.6 55.8 80.6Z" fill="#BFDBE0"/>
<path d="M45.9 72.7C45 71.4 44.1 69.9 43.4 68.4C40.9 69.1 37.9 69.6 34.5 69.8C36.9 71.1 40.3 72.3 45.9 72.7Z" fill="#D4EEF1"/>
</svg>
