<svg width="70" height="70" viewBox="0 0 70 70" fill="none" xmlns="http://www.w3.org/2000/svg">
<mask id="mask0_1_2" style="mask-type:alpha" maskUnits="userSpaceOnUse" x="3" y="2" width="65" height="65">
<circle cx="35.5" cy="34.5" r="32.5" fill="#D9D9D9"/>
</mask>
<g mask="url(#mask0_1_2)">
<path d="M0.769997 0.770004H69.23V69.2306H0.769997V0.770004Z" fill="#F0DB4F"/>
<path d="M56.864 40.0753C56.3625 36.9521 54.3259 34.3287 48.2934 31.8825C46.1977 30.9195 43.8615 30.2299 43.1653 28.6418C42.9181 27.7175 42.8853 27.1969 43.0417 26.6375C43.4907 24.8218 45.658 24.2558 47.3757 24.7764C48.482 25.1472 49.5293 25.9998 50.1609 27.3599C53.1152 25.4469 53.1091 25.4595 55.1719 24.1448C54.4167 22.9739 54.0137 22.4336 53.5193 21.9327C51.7425 19.9481 49.3215 18.926 45.4496 19.0042L43.4327 19.265C41.5001 19.7534 39.6582 20.7678 38.5781 22.1279C35.3373 25.8051 36.2616 32.2407 40.2051 34.8893C44.0901 37.8052 49.7973 38.4685 50.5262 41.1953C51.2355 44.5334 48.073 45.614 44.9295 45.2301C42.613 44.7483 41.3245 43.5709 39.9316 41.4299C37.3679 42.9135 37.3679 42.9135 34.732 44.4295C35.357 45.7961 36.0138 46.4146 37.0616 47.5986C42.0207 52.6288 54.4304 52.3816 56.6562 44.768C56.7464 44.5066 57.3458 42.7632 56.864 40.0753ZM31.2237 19.4072H24.8204L24.7941 35.9622C24.7941 39.483 24.9762 42.7107 24.4037 43.7C23.4669 45.6457 21.0393 45.4046 19.933 45.0272C18.807 44.4738 18.2344 43.6868 17.571 42.5745C17.3889 42.2551 17.2522 42.0079 17.2063 41.9888L12 45.1771C12.8657 46.9539 14.141 48.4961 15.7745 49.4979C18.2147 50.9625 21.4943 51.4114 24.9243 50.6239C27.1566 49.9737 29.0827 48.6268 30.0912 46.5765C31.5491 43.8886 31.2363 40.6353 31.2232 37.0368C31.256 31.1661 31.2237 25.2965 31.2237 19.4072Z" fill="#323330"/>
</g>
</svg>
