<svg width="128" height="128" viewBox="0 0 128 128" fill="none" xmlns="http://www.w3.org/2000/svg">
<path d="M76.397 55.676C73.66 55.676 71.622 57.02 71.622 60.255C71.622 62.692 72.965 64.384 76.25 64.384C79.034 64.384 80.926 62.743 80.926 60.154C80.926 57.22 79.233 55.676 76.397 55.676ZM70.926 78.516C70.278 79.311 69.632 80.156 69.632 81.153C69.632 83.142 72.168 83.74 75.653 83.74C78.538 83.74 82.469 83.538 82.469 80.855C82.469 79.26 80.577 79.162 78.188 79.012L70.926 78.516ZM85.651 55.826C86.546 56.971 87.493 58.563 87.493 60.852C87.493 66.374 83.164 69.608 76.896 69.608C75.302 69.608 73.859 69.41 72.964 69.161L71.322 71.798L76.197 72.095C84.805 72.644 89.879 72.893 89.879 79.508C89.879 85.231 84.855 88.463 76.197 88.463C67.191 88.463 63.759 86.174 63.759 82.245C63.759 80.005 64.755 78.814 66.496 77.169C64.853 76.475 64.307 75.232 64.307 73.888C64.307 72.793 64.854 71.798 65.75 70.852C66.646 69.908 67.641 68.961 68.834 67.867C66.396 66.673 64.556 64.086 64.556 60.403C64.556 54.682 68.337 50.753 75.949 50.753C78.089 50.753 79.384 50.95 80.527 51.251H90.23V55.479L85.651 55.826ZM98.983 46.786C96.146 46.786 94.504 45.143 94.504 42.306C94.504 39.473 96.146 37.929 98.983 37.929C101.869 37.929 103.51 39.472 103.51 42.306C103.511 45.143 101.869 46.786 98.983 46.786ZM92.563 76.686V72.757L95.102 72.409C95.798 72.309 95.897 72.16 95.897 71.412V56.785C95.897 56.239 95.749 55.889 95.25 55.741L92.563 54.795L93.11 50.767H103.411V71.413C103.411 72.211 103.459 72.309 104.207 72.41L106.745 72.758V76.687L92.563 76.686ZM126.42 74.756C124.279 75.799 121.146 76.746 118.308 76.746C112.388 76.746 110.15 74.36 110.15 68.735V55.7C110.15 55.403 110.15 55.203 109.751 55.203H106.269V50.775C110.649 50.276 112.389 48.087 112.936 42.664H117.664V49.731C117.664 50.078 117.664 50.229 118.062 50.229H125.077V55.204H117.664V67.094C117.664 70.029 118.361 71.173 121.047 71.173C122.442 71.173 123.883 70.826 125.077 70.378L126.42 74.756Z" fill="#31251C"/>
<path d="M52.7 61.7L29.951 38.952C28.642 37.642 26.517 37.642 25.207 38.952L20.483 43.676L26.474 49.668C27.868 49.198 29.464 49.513 30.574 50.624C31.69 51.741 32.003 53.351 31.521 54.749L37.296 60.524C38.692 60.043 40.305 60.354 41.421 61.471C42.981 63.03 42.981 65.557 41.421 67.117C39.86 68.677 37.334 68.677 35.774 67.117C34.601 65.943 34.311 64.22 34.905 62.775L29.519 57.389L29.518 71.563C29.899 71.751 30.257 72.001 30.574 72.317C32.134 73.876 32.134 76.402 30.574 77.964C29.014 79.523 26.486 79.523 24.928 77.964C23.368 76.402 23.368 73.876 24.928 72.317C25.314 71.932 25.759 71.641 26.235 71.446V57.141C25.759 56.947 25.314 56.657 24.928 56.27C23.746 55.089 23.462 53.356 24.068 51.905L18.162 45.997L2.56299 61.595C1.25199 62.906 1.25199 65.031 2.56299 66.342L25.312 89.09C26.622 90.4 28.746 90.4 30.058 89.09L52.7 66.446C54.011 65.136 54.011 63.01 52.7 61.7Z" fill="#F34F29"/>
</svg>
