<svg width="81" height="81" viewBox="0 0 81 81" fill="none" xmlns="http://www.w3.org/2000/svg">
<mask id="mask0_1_5" style="mask-type:alpha" maskUnits="userSpaceOnUse" x="6" y="4" width="69" height="69">
<circle cx="40.5" cy="38.5" r="34.5" fill="#D9D9D9"/>
</mask>
<g mask="url(#mask0_1_5)">
<path d="M0 38.5V77H38.5H77V38.5V0H38.5H0V38.5Z" fill="#007ACC"/>
<path d="M55.6795 25.2792C57.2168 25.6653 58.6137 26.5342 59.694 27.7762C60.2889 28.4482 60.8055 29.1962 61.2324 30.0035C61.253 30.0925 58.4605 32.1144 56.7685 33.2478C56.7066 33.2924 56.4636 33.0003 56.1885 32.5648C55.8801 31.9896 55.4415 31.5083 54.9138 31.166C54.3861 30.8236 53.7865 30.6314 53.1713 30.6073C51.2248 30.4638 49.9615 31.565 49.9822 33.4012C49.9656 33.8522 50.0605 34.2998 50.2573 34.698C50.686 35.6557 51.4793 36.2274 53.976 37.393C58.5614 39.5262 60.5377 40.9343 61.7712 42.9363C62.4578 44.2007 62.88 45.6118 63.0083 47.0707C63.1366 48.5297 62.9679 50.0013 62.514 51.3826C61.8914 52.8992 60.9038 54.2082 59.654 55.1735C58.4041 56.1388 56.9375 56.7251 55.4066 56.8715C53.7808 57.0729 52.138 57.0546 50.5163 56.817C48.0317 56.3767 45.7428 55.0898 43.9845 53.1446C43.3206 52.3371 42.7586 51.4384 42.3131 50.4719C42.5008 50.3212 42.6986 50.1855 42.9046 50.066C43.1889 49.8903 44.2802 49.2197 45.289 48.5812L47.1232 47.4255L47.5083 48.0367C48.1612 49.0444 48.9927 49.9023 49.9546 50.561C50.9228 51.1339 52.0194 51.4054 53.1221 51.3451C54.2248 51.2848 55.2904 50.8951 56.1999 50.2194C56.6662 49.726 56.9574 49.0716 57.0228 48.3702C57.0882 47.6689 56.9235 46.965 56.5576 46.3811C56.0578 45.6115 55.0398 44.9631 52.1464 43.6095C49.8774 42.7804 47.8113 41.4081 46.1029 39.5955C45.2881 38.5933 44.6863 37.4108 44.3398 36.1309C44.0835 34.6727 44.0456 33.1796 44.2275 31.7085C44.5675 30.016 45.3814 28.4771 46.5588 27.3005C47.7362 26.1239 49.2202 25.3664 50.8098 25.1307C52.4307 24.916 54.0724 24.966 55.6795 25.2792ZM40.6096 28.1722L40.6303 31.0107H32.2757V56.6389H26.3652V31.0107H18.0083V28.2291C17.9856 27.2748 18.0093 26.3199 18.0794 25.3683C18.1092 25.3238 23.1944 25.3015 29.3594 25.3139L40.5775 25.346L40.6096 28.1722Z" fill="white"/>
</g>
</svg>
